HIERARCHY
ROOT Hips
{
	OFFSET 0.000000 0.000000 0.000000
	CHANNELS 6 Xposition Yposition Zposition Zrotation Yrotation Xrotation 
	JOINT LHipJoint
	{
		OFFSET 0.000000 0.000000 0.000000
		CHANNELS 3 Zrotation Yrotation Xrotation
		JOINT LeftUpLeg
		{
			OFFSET 1.363060 -1.794630 0.839290
			CHANNELS 3 Zrotation Yrotation Xrotation
			JOINT LeftLeg
			{
				OFFSET 2.448110 -6.726130 0.000000
				CHANNELS 3 Zrotation Yrotation Xrotation
				JOINT LeftFoot
				{
					OFFSET 2.562200 -7.039590 0.000000
					CHANNELS 3 Zrotation Yrotation Xrotation
					JOINT LeftToeBase
					{
						OFFSET 0.157640 -0.433110 2.322550
						CHANNELS 3 Zrotation Yrotation Xrotation
						End Site
						{
							OFFSET 0.000000 0.000000 0.000000
						}
					}
				}
			}
		}
	}
	JOINT RHipJoint
	{
		OFFSET 0.000000 0.000000 0.000000
		CHANNELS 3 Zrotation Yrotation Xrotation
		JOINT RightUpLeg
		{
			OFFSET -1.305520 -1.794630 0.839290
			CHANNELS 3 Zrotation Yrotation Xrotation
			JOINT RightLeg
			{
				OFFSET -2.542530 -6.985550 0.000000
				CHANNELS 3 Zrotation Yrotation Xrotation
				JOINT RightFoot
				{
					OFFSET -2.568260 -7.056230 0.000000
					CHANNELS 3 Zrotation Yrotation Xrotation
					JOINT RightToeBase
					{
						OFFSET -0.164730 -0.452590 2.363150
						CHANNELS 3 Zrotation Yrotation Xrotation
						End Site
						{
							OFFSET 0.000000 0.000000 0.000000
						}
					}
				}
			}
		}
	}
	JOINT LowerBack
	{
		OFFSET 0.000000 0.000000 0.000000
		CHANNELS 3 Zrotation Yrotation Xrotation
		JOINT Spine
		{
			OFFSET 0.028270 2.035590 -0.193380
			CHANNELS 3 Zrotation Yrotation Xrotation
			JOINT Spine1
			{
				OFFSET 0.056720 2.048850 -0.042750
				CHANNELS 3 Zrotation Yrotation Xrotation
				JOINT Neck
				{
					OFFSET 0.000000 0.000000 0.000000
					CHANNELS 3 Zrotation Yrotation Xrotation
					JOINT Neck1
					{
						OFFSET -0.054170 1.746240 0.172020
						CHANNELS 3 Zrotation Yrotation Xrotation
						JOINT Head
						{
							OFFSET 0.104070 1.761360 -0.123970
							CHANNELS 3 Zrotation Yrotation Xrotation
							End Site
							{
								OFFSET 0.000000 0.000000 0.000000
							}
						}
					}
				}
				JOINT LeftShoulder
				{
					OFFSET 0.000000 0.000000 0.000000
					CHANNELS 3 Zrotation Yrotation Xrotation
					JOINT LeftArm
					{
						OFFSET 3.362410 1.200890 -0.311210
						CHANNELS 3 Zrotation Yrotation Xrotation
						JOINT LeftForeArm
						{
							OFFSET 4.983000 -0.000000 -0.000000
							CHANNELS 3 Zrotation Yrotation Xrotation
							JOINT LeftHand
							{
								OFFSET 3.483560 -0.000000 -0.000000
								CHANNELS 3 Zrotation Yrotation Xrotation
								JOINT LeftFingerBase
								{
									OFFSET 0.000000 0.000000 0.000000
									CHANNELS 3 Zrotation Yrotation Xrotation
									JOINT LeftHandIndex1
									{
										OFFSET 0.715260 -0.000000 -0.000000
										CHANNELS 3 Zrotation Yrotation Xrotation
										End Site
										{
											OFFSET 0.000000 0.000000 0.000000
										}
									}
								}
								JOINT LThumb
								{
									OFFSET 0.000000 0.000000 0.000000
									CHANNELS 3 Zrotation Yrotation Xrotation
									End Site
									{
										OFFSET 0.000000 0.000000 0.000000
									}
								}
							}
						}
					}
				}
				JOINT RightShoulder
				{
					OFFSET 0.000000 0.000000 0.000000
					CHANNELS 3 Zrotation Yrotation Xrotation
					JOINT RightArm
					{
						OFFSET -3.136600 1.374050 -0.404650
						CHANNELS 3 Zrotation Yrotation Xrotation
						JOINT RightForeArm
						{
							OFFSET -5.241900 -0.000000 -0.000000
							CHANNELS 3 Zrotation Yrotation Xrotation
							JOINT RightHand
							{
								OFFSET -3.444170 -0.000000 -0.000000
								CHANNELS 3 Zrotation Yrotation Xrotation
								JOINT RightFingerBase
								{
									OFFSET 0.000000 0.000000 0.000000
									CHANNELS 3 Zrotation Yrotation Xrotation
									JOINT RightHandIndex1
									{
										OFFSET -0.622530 -0.000000 -0.000000
										CHANNELS 3 Zrotation Yrotation Xrotation
										End Site
										{
											OFFSET 0.000000 0.000000 0.000000
										}
									}
								}
								JOINT RThumb
								{
									OFFSET 0.000000 0.000000 0.000000
									CHANNELS 3 Zrotation Yrotation Xrotation
									End Site
									{
										OFFSET 0.000000 0.000000 0.000000
									}
								}
							}
						}
					}
				}
			}
		}
	}
}
MOTION
Frames: 5
Frame Time: 0.008333
3.298045 16.589703 -0.028376 126.189629 -84.873636 -101.901252 -8.976618 0.633745 1.699258 -9.626517 5.340197 -40.970451 -2.764451 0.258885 24.883896 1.863679 8.693786 -9.071589 -0.000200 -0.000000 -45.452000 11.032875 0.928709 3.668401 -4.292229 -0.681210 -43.653139 0.991538 -1.892034 35.368608 -1.887488 -5.384601 -12.888388 0.175700 -0.000000 -67.267000 -3.381411 -2.895596 -5.360769 -0.747850 -2.673278 -4.697834 -3.427617 -2.688976 -4.240691 2.844295 -3.741206 -2.719730 -1.198663 -0.163123 1.320012 0.000000 0.000000 0.000000 11.361441 2.814515 -0.727401 -46.513122 -44.413365 -20.844000 179.137085 -79.652505 179.865991 9.210887 0.005569 -0.067057 -0.011626 0.850085 -0.000000 0.000000 0.000000 0.000000 0.000000 0.000000 0.000000 -5.713490 -0.742201 -2.623155 49.687520 49.594190 -18.103141 -178.988062 86.952926 179.759348 -16.097171 10.872869 -1.676393 0.026963 -0.906809 -0.000000 0.000000 0.000000 0.000000 0.000000 0.000000 0.000000 
3.289365 16.594163 -0.094066 127.002063 -84.764612 -103.270446 -9.031717 0.643743 1.678423 -9.322902 5.598377 -40.168224 -2.719450 0.227166 24.596387 1.866213 8.877444 -8.840900 0.030700 0.000000 -45.418801 11.022026 0.863013 3.626350 -4.086284 -0.569406 -43.092950 0.987142 -1.903296 35.655751 -1.882539 -5.345115 -13.168764 0.221500 0.000000 -67.219200 -3.393792 -3.034772 -5.365250 -0.730806 -2.808543 -4.673147 -3.411974 -2.826087 -4.140272 2.878409 -4.114778 -2.911650 -1.185736 -0.159620 1.272526 0.000000 0.000000 0.000000 11.696960 2.436533 -0.601037 -46.470325 -42.149919 -20.728538 179.239784 -80.644301 179.869890 9.157981 0.372584 -0.035609 -0.017799 0.830296 -0.000000 0.000000 0.000000 0.000000 0.000000 0.000000 0.000000 -5.673378 -0.960754 -2.541200 50.779921 49.463854 -15.957462 -179.143483 88.362475 179.768516 -15.613428 10.561340 -1.579292 0.019092 -0.892426 -0.000000 0.000000 0.000000 0.000000 0.000000 0.000000 0.000000 
3.280382 16.599770 -0.161721 128.220498 -84.628283 -105.069123 -9.096770 0.648713 1.654942 -8.984279 5.848790 -39.323134 -2.666841 0.196125 24.334023 1.877709 9.105558 -8.652981 0.054300 -0.000000 -45.411200 11.001355 0.787959 3.582645 -3.867061 -0.436660 -42.475039 0.987567 -1.908525 35.877774 -1.870376 -5.276368 -13.431591 0.264300 -0.000000 -67.188300 -3.408208 -3.173353 -5.366242 -0.713081 -2.942623 -4.644084 -3.391122 -2.962644 -4.021040 2.910556 -4.507860 -3.107859 -1.168557 -0.155743 1.223950 0.000000 0.000000 0.000000 12.034359 2.073867 -0.464970 -46.508944 -39.754983 -20.485341 179.341665 -81.650258 179.874406 9.084003 0.812324 0.001533 -0.024202 0.807525 -0.000000 0.000000 0.000000 0.000000 0.000000 0.000000 0.000000 -5.643707 -1.198660 -2.464140 52.011612 49.331169 -13.631371 -179.298766 89.787593 179.778037 -15.098646 10.378603 -1.499587 0.011577 -0.878802 -0.000000 0.000000 0.000000 0.000000 0.000000 0.000000 0.000000 
3.271525 16.606858 -0.231220 129.818273 -84.460230 -107.267191 -9.173418 0.648403 1.629348 -8.605019 6.076892 -38.446230 -2.603056 0.169225 24.121232 1.899659 9.393137 -8.488609 0.074700 0.000001 -45.512300 10.969081 0.704985 3.536756 -3.635834 -0.277338 -41.798518 0.992344 -1.906826 36.025815 -1.851666 -5.181797 -13.670963 0.302800 -0.000000 -67.175100 -3.425448 -3.310395 -5.362355 -0.695125 -3.074458 -4.610373 -3.365196 -3.097599 -3.882616 2.941877 -4.917222 -3.308183 -1.147126 -0.151482 1.174230 0.000000 0.000000 0.000000 12.369798 1.736571 -0.319917 -46.637649 -37.249115 -20.109242 179.441463 -82.666680 179.879713 8.972728 1.329790 0.044271 -0.030446 0.781669 -0.000000 0.000000 0.000000 0.000000 0.000000 0.000000 0.000000 -5.621694 -1.453829 -2.393388 53.382178 49.189647 -11.140077 0.547748 88.762944 -0.212169 -14.559133 10.331024 -1.436878 0.004624 -0.865765 -0.000000 0.000000 0.000000 0.000000 0.000000 0.000000 0.000000 
3.263025 16.615850 -0.302680 131.818517 -84.249329 -109.883768 -9.263169 0.643502 1.600577 -8.183378 6.278452 -37.546753 -2.525206 0.149800 23.974884 1.932680 9.755192 -8.312290 0.099600 -0.000000 -45.804600 10.923861 0.615145 3.491153 -3.396842 -0.075553 -41.063766 0.999966 -1.897131 36.091888 -1.827446 -5.066734 -13.880111 0.336100 0.000000 -67.173299 -3.449056 -3.441808 -5.354069 -0.678263 -3.199708 -4.572366 -3.334890 -3.226653 -3.725660 2.974332 -5.339179 -3.511987 -1.121363 -0.146835 1.123468 0.000000 0.000000 0.000000 12.704312 1.432281 -0.167943 -46.866641 -34.646289 -19.590892 179.537311 -83.689918 179.885687 8.824532 1.915314 0.091201 -0.036526 0.752959 -0.000000 0.000000 0.000000 0.000000 0.000000 0.000000 0.000000 -5.605052 -1.721173 -2.329409 54.891036 49.023308 -8.502368 0.398501 87.284695 -0.202051 -13.997653 10.400828 -1.387364 -0.001555 -0.852785 -0.000000 0.000000 0.000000 0.000000 0.000000 0.000000 0.000000 
